HIERARCHY
ROOT Hips
{
	OFFSET -3.958830 18.904000 13.208200
	CHANNELS 6 Xposition Yposition Zposition Zrotation Yrotation Xrotation 
	JOINT LHipJoint
	{
		OFFSET 0.000000 0.000000 0.000000
		CHANNELS 3 Zrotation Yrotation Xrotation
		JOINT LeftUpLeg
		{
			OFFSET 1.800000 -1.400000 0.085000
			CHANNELS 3 Zrotation Yrotation Xrotation
			JOINT LeftLeg
			{
				OFFSET 2.215000 -6.000000 0.000000
				CHANNELS 3 Zrotation Yrotation Xrotation
				JOINT LeftFoot
				{
					OFFSET 2.500000 -6.900000 0.000000
					CHANNELS 3 Zrotation Yrotation Xrotation
					JOINT LeftToeBase
					{
						OFFSET 0.200000 -0.500000 1.950000
						CHANNELS 3 Zrotation Yrotation Xrotation
						End Site
						{
							OFFSET 0.000000 0.000000 0.000000
						}
					}
				}
			}
		}
	}
	JOINT RHipJoint
	{
		OFFSET 0.000000 0.000000 0.000000
		CHANNELS 3 Zrotation Yrotation Xrotation
		JOINT RightUpLeg
		{
			OFFSET -1.800000 -1.400000 0.085000
			CHANNELS 3 Zrotation Yrotation Xrotation
			JOINT RightLeg
			{
				OFFSET -2.215000 -6.000000 0.000000
				CHANNELS 3 Zrotation Yrotation Xrotation
				JOINT RightFoot
				{
					OFFSET -2.500000 -6.900000 0.000000
					CHANNELS 3 Zrotation Yrotation Xrotation
					JOINT RightToeBase
					{
						OFFSET -0.200000 -0.500000 1.950000
						CHANNELS 3 Zrotation Yrotation Xrotation
						End Site
						{
							OFFSET 0.000000 0.000000 0.000000
						}
					}
				}
			}
		}
	}
	JOINT LowerBack
	{
		OFFSET 0.000000 0.000000 0.000000
		CHANNELS 3 Zrotation Yrotation Xrotation
		JOINT Spine
		{
			OFFSET -0.087000 1.940000 -0.288900
			CHANNELS 3 Zrotation Yrotation Xrotation
			JOINT Spine1
			{
				OFFSET 0.000000 1.950000 0.060000
				CHANNELS 3 Zrotation Yrotation Xrotation
				JOINT Neck
				{
					OFFSET 0.000000 0.000000 0.000000
					CHANNELS 3 Zrotation Yrotation Xrotation
					JOINT Neck1
					{
						OFFSET 0.000000 1.600000 0.340000
						CHANNELS 3 Zrotation Yrotation Xrotation
						JOINT Head
						{
							OFFSET 0.000000 1.667000 -0.240000
							CHANNELS 3 Zrotation Yrotation Xrotation
							End Site
							{
								OFFSET 0.000000 0.000000 0.000000
							}
						}
					}
				}
				JOINT LeftShoulder
				{
					OFFSET 0.000000 0.000000 0.000000
					CHANNELS 3 Zrotation Yrotation Xrotation
					JOINT LeftArm
					{
						OFFSET 2.700000 1.550000 -0.730000
						CHANNELS 3 Zrotation Yrotation Xrotation
						JOINT LeftForeArm
						{
							OFFSET 5.450000 0.000000 0.000000
							CHANNELS 3 Zrotation Yrotation Xrotation
							JOINT LeftHand
							{
								OFFSET 3.450000 0.000000 0.000000
								CHANNELS 3 Zrotation Yrotation Xrotation
								JOINT LeftHandIndex1
								{
									OFFSET 0.750000 0.000000 0.000000
									CHANNELS 3 Zrotation Yrotation Xrotation
									End Site
									{
										OFFSET 0.000000 0.000000 0.000000
									}
								}
							}
						}
					}
				}
				JOINT RightShoulder
				{
					OFFSET 0.000000 0.000000 0.000000
					CHANNELS 3 Zrotation Yrotation Xrotation
					JOINT RightArm
					{
						OFFSET -2.700000 1.550000 -0.730000
						CHANNELS 3 Zrotation Yrotation Xrotation
						JOINT RightForeArm
						{
							OFFSET -5.450000 0.000000 0.000000
							CHANNELS 3 Zrotation Yrotation Xrotation
							JOINT RightHand
							{
								OFFSET -3.450000 0.000000 0.000000
								CHANNELS 3 Zrotation Yrotation Xrotation
								JOINT RightHandIndex1
								{
									OFFSET -0.750000 0.000000 0.000000
									CHANNELS 3 Zrotation Yrotation Xrotation
									End Site
									{
										OFFSET 0.000000 0.000000 0.000000
									}
								}
							}
						}
					}
				}
			}
		}
	}
}
MOTION
Frames: 4
Frame Time: 0.016667
0.063180 14.196960 -2.759960 -23.739889 16.283499 48.547165 -15.733224 7.248760 8.111596 -1.999412 -34.379903 -74.002694 -12.592303 14.463705 59.267736 1.803059 10.606990 1.040365 0.345530 0.157160 0.441230 18.955310 -6.055068 4.815430 -8.938999 8.068757 -70.672602 -26.232800 4.261949 59.927405 -1.400948 -8.882836 1.133773 -0.191590 -0.212860 0.070940 -3.632259 -1.182677 -11.139748 16.233811 -7.431204 62.552180 -12.764013 1.244841 0.356002 6.644798 1.384760 -14.509085 -0.824518 2.374224 46.846272 2.406370 0.731070 -2.855500 -2.704615 -43.637008 4.928931 10.654585 -28.797234 -6.742436 10.364429 -1.847722 -1.155780 -3.879073 2.979572 0.191550 -0.216520 0.096300 -0.059250 -10.969372 44.500296 -2.754646 -19.724404 36.785035 -12.854602 -110.237103 54.371074 -70.851921 2.436302 -0.614504 0.269380 -0.130260 -0.122550 -0.130660 
0.040440 14.132340 -2.756030 -24.733426 16.395667 47.117016 -15.656222 7.266262 7.843373 -2.052219 -33.534432 -72.598836 -16.400631 16.027088 57.519560 1.841644 10.825786 0.957106 0.373620 0.204490 0.422760 19.018448 -6.015893 5.044598 -7.514664 9.528460 -72.251921 -29.180073 6.207276 58.675279 -1.452616 -9.041912 1.061027 -0.145930 -0.201370 0.099410 -3.789215 -1.025142 -11.095640 17.291262 -8.296542 62.545560 -13.886329 0.691045 1.361943 6.953392 0.020110 -13.704711 -3.088629 3.961578 45.005144 2.622810 1.157840 -4.099380 -3.037061 -42.044069 4.921589 10.669167 -28.933789 -6.819080 11.036978 -2.678274 -1.230407 -3.894424 3.055068 0.171450 -0.199490 0.082020 -0.063890 -11.275289 43.600380 -2.583372 -24.143028 37.922325 -13.744070 -112.559461 51.764120 -70.717726 2.435658 -0.899975 0.282970 -0.147430 -0.102130 -0.121300 
0.024940 14.070010 -2.756710 -25.125817 16.329122 46.258144 -15.598397 7.267634 7.651019 -1.845935 -33.091956 -71.871655 -20.130721 17.326336 55.599510 1.915700 10.962883 0.919233 0.407510 0.264510 0.421340 19.066643 -5.991057 5.201737 -6.984551 10.170799 -73.625208 -30.634177 6.909442 56.646772 -1.428930 -8.909439 1.093694 -0.107310 -0.197910 0.113830 -3.912512 -0.881219 -11.053535 17.855045 -9.013980 62.489422 -14.886628 0.166830 2.198020 7.211413 -1.259900 -13.105410 -5.201786 4.985511 42.854320 2.232210 1.568940 -4.992510 -3.139171 -40.546999 4.779516 10.911304 -29.095608 -6.961856 11.541543 -3.643504 -1.250145 -3.892848 3.116818 0.132530 -0.184570 0.075860 -0.055010 -11.706814 42.850502 -2.179225 -28.747976 38.488362 -15.266264 -113.427774 48.864856 -67.714933 2.445468 -1.121190 0.308640 -0.158360 -0.111390 -0.103390 
0.021000 14.029910 -2.759870 -25.450276 16.326820 45.517669 -15.553926 7.244619 7.527904 -1.666546 -32.687626 -71.430921 -22.360720 17.975275 54.248967 1.916242 11.018421 0.897616 0.430450 0.305820 0.411020 19.107888 -5.978819 5.306188 -6.384391 10.733345 -74.580022 -32.080664 7.458012 54.487803 -1.403988 -8.756795 1.134937 -0.067920 -0.183610 0.123270 -4.013443 -0.730498 -11.022052 18.414137 -9.673409 62.556566 -15.666522 -0.141522 3.030337 7.334724 -2.268755 -12.593469 -6.920199 5.414114 41.309808 1.969850 1.409610 -6.211860 -2.790170 -39.363547 4.451738 11.084863 -29.534636 -6.968043 11.841592 -4.232714 -1.297722 -3.905514 3.136270 0.119050 -0.169690 0.068430 -0.047370 -12.334225 42.168470 -1.842849 -32.596560 38.265880 -16.820208 -113.654647 46.597264 -64.788603 2.432172 -1.253292 0.310770 -0.144250 -0.103600 -0.094540 
